<svg xmlns="http://www.w3.org/2000/svg" width="403.575" height="331.42" viewBox="1367.782 616.58 403.575 331.42"><g data-name="City Illustration"><path d="M1367.782 948v-30h403.575v30h-403.575Z" fill="#a1ffd9" fill-rule="evenodd" data-name="City grass"/><g data-name="Buidings"><g data-name="Buiding Shadow"><path d="M1367.782 826.196v-161.46h26.547v161.46h-26.547Z" fill="#f5f5f5" fill-rule="evenodd" data-name="Path 23"/><path d="M1457.782 794.196V621.622h26.547v172.574h-26.547Z" fill="#f5f5f5" fill-rule="evenodd" data-name="Path 29"/><path d="M1664.782 829.196v-167.46h96.791v167.46h-96.791Z" fill="#f5f5f5" fill-rule="evenodd" data-name="Path 21"/><path d="M1616.782 783.196V664.53h34.257v118.665h-34.257Z" fill="#f5f5f5" fill-rule="evenodd" data-name="Path 30"/><path d="M1516.782 816.196V621.53h34.257v194.665h-34.257Z" fill="#f5f5f5" fill-rule="evenodd" data-name="Path 31"/></g><g data-name="Core"><path d="M1376.329 825.196V670.317h59.697v154.879h-59.697Z" fill="#c4d1fe" fill-rule="evenodd" data-name="Path 8"/><path d="M1444.782 825.196V616.58h96.791v208.616h-96.791Z" fill="#a1ffd9" fill-rule="evenodd" data-name="Path 9"/><path d="M1550.782 825.196v-44.432h96.791v44.432h-96.791Z" fill="#7affcb" fill-rule="evenodd" data-name="Path 10"/><path d="M1656.782 825.196V670.317h96.791v154.879h-96.791Z" fill="#c4d1fe" fill-rule="evenodd" data-name="Path 11"/></g></g><path d="M1367.782 909.76v-76.28h403.575v76.28h-403.575Z" fill="#8091ff" fill-rule="evenodd" data-name="City water"/><g data-name="Windows"><path d="M1453.133 648.665V636.53h36.598v12.134h-36.598Z" fill="#bffee6" fill-rule="evenodd" data-name="Path 13"/><path d="M1453.133 670.665V658.53h36.598v12.134h-36.598Z" fill="#31feae" fill-rule="evenodd" data-name="Path 14"/><path d="M1664.573 778.665V766.53h83.718v12.134h-83.718Z" fill="#31feae" fill-rule="evenodd" data-name="Path 25"/><path d="M1665.573 800.665V788.53h83.718v12.134h-83.718Z" fill="#31feae" fill-rule="evenodd" data-name="Path 26"/><path d="M1388.133 694.665V682.53h36.598v12.134h-36.598Z" fill="#a1feda" fill-rule="evenodd" data-name="Path 18"/><path d="M1388.133 814.665V802.53h36.598v12.134h-36.598Z" fill="#3564fb" fill-rule="evenodd" data-name="Path 20"/><path d="M1388.133 759.665v-49.05h36.598v49.05h-36.598Z" fill="#a2b8ff" fill-rule="evenodd" data-name="Path 19"/><path d="M1493.133 738.195v-34.664h36.598v34.664h-36.598Z" fill="#7d9cff" fill-rule="evenodd" data-name="Path 15"/><path d="M1450.133 737.195v-34.664h36.598v34.664h-36.598Z" fill="#3b5dca" fill-rule="evenodd" data-name="Path 16"/><path d="M1484.133 808.195v-34.664h36.598v34.664h-36.598Z" fill="#597ff7" fill-rule="evenodd" data-name="Path 17"/><path d="M1665.452 709.386v-24.855h62.84v24.855h-62.84Z" fill="#bffee6" fill-rule="evenodd" data-name="Path 27"/><path d="M1690.708 730.376v-17.988h17.448v17.988h-17.448Z" fill="#5f84fb" fill-rule="evenodd" data-name="Path 28"/><path d="M1690.708 756.376v-17.988h17.448v17.988h-17.448Z" fill="#5f84fb" fill-rule="evenodd" data-name="Path 46"/><path d="M1665.708 756.376v-17.988h17.448v17.988h-17.448Z" fill="#5f84fb" fill-rule="evenodd" data-name="Path 47"/><path d="M1665.708 730.376v-17.988h17.448v17.988h-17.448Z" fill="#31feae" fill-rule="evenodd" data-name="Path 48"/><path d="M1728.708 730.376v-17.988h17.448v17.988h-17.448Z" fill="#7d9cff" fill-rule="evenodd" data-name="Path 44"/><path d="M1728.708 758.376v-17.988h17.448v17.988h-17.448Z" fill="#aebff7" fill-rule="evenodd" data-name="Path 45"/></g><path d="M1588.487 915.465c.978-.302-17.851-39.028.259-85.281 43.603.157 39.974 0 39.974 0s-11.39 42.656 5.459 85.28c-47.39-1.671-46.67.302-45.692 0Z" fill="#ccc8ff" fill-rule="evenodd" data-name="Bridge"/><g data-name="Water Turbulence"><g data-name="Group 4"><path d="M1406.177 873.318s18.213 3.509 21.796-5.228" stroke-linejoin="round" stroke-linecap="round" stroke-width="2" stroke="#fff" fill="transparent" data-name="Path 42"/><path d="M1441.48 873.318s-1.52.425-3.78.625c-3.735.334-9.631-.156-11.241-5.853" stroke-linejoin="round" stroke-linecap="round" stroke-width="2" stroke="#fff" fill="transparent" data-name="Path 43"/></g><g data-name="Group 5"><path d="M1480.177 859.318s18.213 3.509 21.796-5.228" stroke-linejoin="round" stroke-linecap="round" stroke-width="2" stroke="#fff" fill="transparent" data-name="Path 42"/><path d="M1515.48 859.318s-1.52.425-3.78.625c-3.735.334-9.631-.156-11.241-5.853" stroke-linejoin="round" stroke-linecap="round" stroke-width="2" stroke="#fff" fill="transparent" data-name="Path 43"/></g><g data-name="Group 8"><path d="M1491.177 890.318s18.213 3.509 21.796-5.228" stroke-linejoin="round" stroke-linecap="round" stroke-width="2" stroke="#fff" fill="transparent" data-name="Path 42"/><path d="M1526.48 890.318s-1.52.425-3.78.625c-3.735.334-9.631-.156-11.241-5.853" stroke-linejoin="round" stroke-linecap="round" stroke-width="2" stroke="#fff" fill="transparent" data-name="Path 43"/></g><g data-name="Group 17"><path d="M1721.177 887.318s18.213 3.509 21.796-5.228" stroke-linejoin="round" stroke-linecap="round" stroke-width="2" stroke="#fff" fill="transparent" data-name="Path 42"/><path d="M1756.48 887.318s-1.52.425-3.78.625c-3.735.334-9.631-.156-11.241-5.853" stroke-linejoin="round" stroke-linecap="round" stroke-width="2" stroke="#fff" fill="transparent" data-name="Path 43"/></g><g data-name="Group 18"><path d="M1651.177 856.318s18.213 3.509 21.796-5.228" stroke-linejoin="round" stroke-linecap="round" stroke-width="2" stroke="#fff" fill="transparent" data-name="Path 42"/><path d="M1686.48 856.318s-1.52.425-3.78.625c-3.735.334-9.631-.156-11.241-5.853" stroke-linejoin="round" stroke-linecap="round" stroke-width="2" stroke="#fff" fill="transparent" data-name="Path 43"/></g></g><g data-name="Fence"><g data-name="Poles"><path d="M1385 898h1a2 2 0 0 1 2 2v21a2 2 0 0 1-2 2h-1a2 2 0 0 1-2-2v-21a2 2 0 0 1 2-2z" fill="#606cb9" fill-rule="evenodd" data-name="Rectangle 13"/><path d="M1460 898h1a2 2 0 0 1 2 2v21a2 2 0 0 1-2 2h-1a2 2 0 0 1-2-2v-21a2 2 0 0 1 2-2z" fill="#606cb9" fill-rule="evenodd" data-name="Rectangle 18"/><path d="M1535 898h1a2 2 0 0 1 2 2v21a2 2 0 0 1-2 2h-1a2 2 0 0 1-2-2v-21a2 2 0 0 1 2-2z" fill="#606cb9" fill-rule="evenodd" data-name="Rectangle 21"/><path d="M1410 898h1a2 2 0 0 1 2 2v21a2 2 0 0 1-2 2h-1a2 2 0 0 1-2-2v-21a2 2 0 0 1 2-2z" fill="#606cb9" fill-rule="evenodd" data-name="Rectangle 14"/><path d="M1485 898h1a2 2 0 0 1 2 2v21a2 2 0 0 1-2 2h-1a2 2 0 0 1-2-2v-21a2 2 0 0 1 2-2z" fill="#606cb9" fill-rule="evenodd" data-name="Rectangle 17"/><path d="M1560 898h1a2 2 0 0 1 2 2v21a2 2 0 0 1-2 2h-1a2 2 0 0 1-2-2v-21a2 2 0 0 1 2-2z" fill="#606cb9" fill-rule="evenodd" data-name="Rectangle 20"/><path d="M1435 898h1a2 2 0 0 1 2 2v21a2 2 0 0 1-2 2h-1a2 2 0 0 1-2-2v-21a2 2 0 0 1 2-2z" fill="#606cb9" fill-rule="evenodd" data-name="Rectangle 15"/><path d="M1510 898h1a2 2 0 0 1 2 2v21a2 2 0 0 1-2 2h-1a2 2 0 0 1-2-2v-21a2 2 0 0 1 2-2z" fill="#606cb9" fill-rule="evenodd" data-name="Rectangle 16"/></g><g data-name="Ropes"><path d="M1385.5 902c.427-.951 14.199 16.906 25.443 0" stroke-linejoin="round" stroke-linecap="round" stroke-width="3" stroke="#a1ffd9" fill="transparent" data-name="Path 45"/><path d="M1410.5 903c.427-.951 14.199 16.906 25.443 0" stroke-linejoin="round" stroke-linecap="round" stroke-width="3" stroke="#a1ffd9" fill="transparent" data-name="Path 46"/><path d="M1435.5 901c.427-.951 14.199 16.906 25.443 0" stroke-linejoin="round" stroke-linecap="round" stroke-width="3" stroke="#a1ffd9" fill="transparent" data-name="Path 47"/><path d="M1460.5 903c.427-.951 14.199 16.906 25.443 0" stroke-linejoin="round" stroke-linecap="round" stroke-width="3" stroke="#a1ffd9" fill="transparent" data-name="Path 48"/><path d="M1486.5 901c.427-.951 14.199 16.906 25.443 0" stroke-linejoin="round" stroke-linecap="round" stroke-width="3" stroke="#a1ffd9" fill="transparent" data-name="Path 49"/><path d="M1510.5 905c.427-.951 14.199 16.906 25.443 0" stroke-linejoin="round" stroke-linecap="round" stroke-width="3" stroke="#a1ffd9" fill="transparent" data-name="Path 50"/><path d="M1535.5 903c.427-.951 14.199 16.906 25.443 0" stroke-linejoin="round" stroke-linecap="round" stroke-width="3" stroke="#a1ffd9" fill="transparent" data-name="Path 51"/></g></g></g></svg>