<svg xmlns="http://www.w3.org/2000/svg" width="210.714" height="180.447" viewBox="401.89 232.95 210.714 180.447"><g data-name="Group 21"><g data-name="Cloudy Icon"><path d="M401.89 316.09a85.501 83.19 0 1 1 0 .1z" fill="#ffde17" fill-rule="evenodd" data-name="Sun"/><g data-name="Cloud"><path d="M519.373 350.382a24.802 24.131 0 1 1 0 .1z" fill="#fff" fill-rule="evenodd" data-name="Ellipse 4"/><path d="M491.308 362.447a24.802 24.131 0 1 1 0 .1z" fill="#fff" fill-rule="evenodd" data-name="Ellipse 5"/><path d="M461.855 382.769a27.371 24.131 0 1 1 0 .1z" fill="#fff" fill-rule="evenodd" data-name="Ellipse 6"/><path d="M491.308 358.737h92.68V407h-92.68v-48.263z" fill="#fff" fill-rule="evenodd" data-name="Rectangle 12"/></g></g><path d="M587.153 405.993c14.187-3.958 22.39-18.356 18.322-32.16-4.068-13.803-18.866-21.784-33.053-17.826-14.187 3.958-22.39 18.356-18.322 32.16 4.068 13.803 18.867 21.784 33.053 17.826Z" fill="#fff" fill-rule="evenodd" data-name="Path 61"/></g></svg>