<svg xmlns="http://www.w3.org/2000/svg" width="49.945" height="32" viewBox="31.528 30 49.945 32"><g data-name="Menu Burger Icon"><path d="M33.528 58h45.944a2 2 0 0 1 2 2 2 2 0 0 1-2 2H33.528a2 2 0 0 1-2-2 2 2 0 0 1 2-2z" fill="#594e78" fill-rule="evenodd" data-name="Rectangle 9"/><path d="M33.528 44h45.944a2 2 0 0 1 2 2 2 2 0 0 1-2 2H33.528a2 2 0 0 1-2-2 2 2 0 0 1 2-2z" fill="#594e78" fill-rule="evenodd" data-name="Rectangle 10"/><path d="M33.528 30h45.944a2 2 0 0 1 2 2 2 2 0 0 1-2 2H33.528a2 2 0 0 1-2-2 2 2 0 0 1 2-2z" fill="#594e78" fill-rule="evenodd" data-name="Rectangle 11"/></g></svg>