<svg xmlns="http://www.w3.org/2000/svg" width="79.417" height="47.866" viewBox="1661.962 898.986 79.417 47.866"><g data-name="Parasoles"><path d="M1698.962 940.852v-6.847h37.215v6.847h-37.215Z" fill="#7285ff" fill-rule="evenodd" data-name="Path 36"/><path d="M1687.76 933.852v-6.847h9.62v6.847h-9.62Z" fill="#909fff" fill-rule="evenodd" data-name="Path 53"/><path d="M1703.76 945.852v-6.847h9.62v6.847h-9.62Z" fill="#909fff" fill-rule="evenodd" data-name="Path 55"/><path d="M1719.76 946.852v-6.847h9.62v6.847h-9.62Z" fill="#909fff" fill-rule="evenodd" data-name="Path 56"/><path d="M1731.76 942.852v-6.847h9.62v6.847h-9.62Z" fill="#909fff" fill-rule="evenodd" data-name="Path 57"/><path d="M1716.984 907.986h1.225v26.774h-1.225v-26.774Z" fill="#3a54ff" fill-rule="evenodd" data-name="Path 37"/><path d="M1679.984 898.986h1.225v26.774h-1.225v-26.774Z" fill="#3a54ff" fill-rule="evenodd" data-name="Path 40"/><path d="M1733.786 927.034h-32.231l16.115-16.116 16.116 16.116Z" fill="#31feae" fill-rule="evenodd" data-name="Path 38"/><path d="M1661.962 931.852v-6.847h37.215v6.847h-37.215Z" fill="#7285ff" fill-rule="evenodd" data-name="Path 39"/><path d="M1663.76 935.852v-6.847h9.62v6.847h-9.62Z" fill="#909fff" fill-rule="evenodd" data-name="Path 52"/><path d="M1676.76 938.852v-6.847h9.62v6.847h-9.62Z" fill="#909fff" fill-rule="evenodd" data-name="Path 54"/><path d="M1696.786 918.034h-32.231l16.115-16.116 16.116 16.116Z" fill="#31feae" fill-rule="evenodd" data-name="Path 41"/></g></svg>