<svg xmlns="http://www.w3.org/2000/svg" width="191.136" height="191.136" viewBox="1463.432 332.382 191.136 191.136"><g data-name="Plus Icon"><path d="M1463.432 427.9a95.568 95.568 0 1 1 0 .1z" fill="#f5f8ff" fill-rule="evenodd" data-name="Ellipse 7"/><path d="M1557.575 358.131h2.85a5 5 0 0 1 5 5v132.95a5 5 0 0 1-5 5h-2.85a5 5 0 0 1-5-5v-132.95a5 5 0 0 1 5-5z" fill="#7effcc" fill-rule="evenodd" data-name="Rectangle 3"/><path d="M1630.475 428.181v2.85a5 5 0 0 1-5 5h-132.95a5 5 0 0 1-5-5v-2.85a5 5 0 0 1 5-5h132.95a5 5 0 0 1 5 5z" fill="#7effcc" fill-rule="evenodd" data-name="Rectangle 4"/></g></svg>