<svg xmlns="http://www.w3.org/2000/svg" width="206.284" height="256.854" viewBox="845.216 296.909 206.284 256.854"><g data-name="Snowing Icon"><g data-name="Water Drops"><path d="M1002.37 315.527s85.833 133.473 0 133.473c-85.834 0 0-133.473 0-133.473Z" fill="#0032cc" fill-rule="evenodd" data-name="Path 7"/><path d="M946.37 296.909s-156.082 242.71 0 242.71c156.081 0 0-242.71 0-242.71Z" fill="#003eff" fill-rule="evenodd" data-name="Path 3"/></g><g data-name="Ice (big)"><path d="M846.99 479.75h108.525v7.484H846.99v-7.485z" fill="#fff" fill-rule="evenodd" data-name="Rectangle 22"/><path d="M921.835 445.237v108.526h-7.485V445.237h7.485z" fill="#fff" fill-rule="evenodd" data-name="Rectangle 25"/><path d="m925.068 551.176-76.739-76.739 5.293-5.292 76.738 76.739-5.292 5.292z" fill="#fff" fill-rule="evenodd" data-name="Rectangle 28"/><path d="m845.216 508.806 93.986-54.262 3.742 6.482-93.986 54.262-3.742-6.482z" fill="#fff" fill-rule="evenodd" data-name="Rectangle 31"/><path d="M846.99 513.43h108.525v7.484H846.99v-7.484z" fill="#fff" fill-rule="evenodd" data-name="Rectangle 23"/><path d="M888.155 445.237v108.526h-7.485V445.237h7.485z" fill="#fff" fill-rule="evenodd" data-name="Rectangle 27"/><path d="m948.884 527.36-76.74-76.738 5.293-5.293 76.739 76.74-5.292 5.291z" fill="#fff" fill-rule="evenodd" data-name="Rectangle 30"/><path d="m862.056 537.974 93.986-54.262 3.742 6.482-93.986 54.262-3.742-6.482z" fill="#fff" fill-rule="evenodd" data-name="Rectangle 33"/><path d="M846.99 495.55h108.525v7.484H846.99v-7.484z" fill="#fff" fill-rule="evenodd" data-name="Rectangle 24"/><path d="M906.034 445.237v108.526h-7.484V445.237h7.484z" fill="#fff" fill-rule="evenodd" data-name="Rectangle 26"/><path d="m936.24 540.003-76.738-76.739 5.292-5.292 76.74 76.739-5.293 5.292z" fill="#fff" fill-rule="evenodd" data-name="Rectangle 29"/><path d="m853.116 522.49 93.986-54.262 3.742 6.481-93.985 54.263-3.743-6.482z" fill="#fff" fill-rule="evenodd" data-name="Rectangle 32"/></g><g data-name="Ice (small)"><path d="M964.863 403.33h83.358v5.748h-83.358v-5.749z" fill="#fff" fill-rule="evenodd" data-name="Rectangle 22"/><path d="M1022.351 376.82v83.36h-5.749v-83.36h5.75z" fill="#fff" fill-rule="evenodd" data-name="Rectangle 25"/><path d="M1024.835 458.192 965.89 399.25l4.065-4.065 58.944 58.943-4.065 4.065z" fill="#fff" fill-rule="evenodd" data-name="Rectangle 28"/><path d="m963.5 425.648 72.19-41.679 2.875 4.979-72.19 41.679-2.875-4.979z" fill="#fff" fill-rule="evenodd" data-name="Rectangle 31"/><path d="M964.863 429.2h83.358v5.748h-83.358V429.2z" fill="#fff" fill-rule="evenodd" data-name="Rectangle 23"/><path d="M996.481 376.82v83.36h-5.749v-83.36h5.75z" fill="#fff" fill-rule="evenodd" data-name="Rectangle 27"/><path d="m1043.127 439.9-58.943-58.944 4.065-4.065 58.943 58.944-4.065 4.065z" fill="#fff" fill-rule="evenodd" data-name="Rectangle 30"/><path d="m976.435 448.052 72.19-41.679 2.875 4.979-72.19 41.679-2.875-4.979z" fill="#fff" fill-rule="evenodd" data-name="Rectangle 33"/><path d="M964.863 415.466h83.358v5.749h-83.358v-5.75z" fill="#fff" fill-rule="evenodd" data-name="Rectangle 24"/><path d="M1010.215 376.82v83.36h-5.75v-83.36h5.75z" fill="#fff" fill-rule="evenodd" data-name="Rectangle 26"/><path d="m1033.416 449.61-58.943-58.943 4.065-4.065 58.943 58.944-4.065 4.065z" fill="#fff" fill-rule="evenodd" data-name="Rectangle 29"/><path d="m969.568 436.159 72.19-41.68 2.875 4.98-72.19 41.678-2.875-4.978z" fill="#fff" fill-rule="evenodd" data-name="Rectangle 32"/></g></g></svg>